# File created by Blade
# Date/Time:  Fri Jan 16 19:18:57 2015
# Frame Rate: 120.000 fps
#------------------------------------------------------
:FULLY-SPECIFIED
:DEGREES
519
root 19.537003 35.788268 -22.124222 -168.009726 3.617081 -179.527796
Spine -25.408602 1.771629 2.453914
Head 14.219633 2.939743 -6.277072
LeftShoulder -14.509248 -55.801944 46.866793
LeftArm 51.116592 -48.924018 -22.542191
LeftForeArm -41.743214 -0.000000 76.913426
LeftHand -3.965003 -0.000000 29.483126
LeftHandThumb1 -26.253704 0.000000 33.147579
RightShoulder -8.830703 22.919125 -43.298024
RightArm 96.456801 76.999010 71.842159
RightForeArm 18.598928 -0.000000 40.110428
RightHand -1.347438 -0.000000 -23.976086
RightHandThumb1 -24.326973 -0.000000 -32.862282
LeftUpLeg -2.724538 11.623623 -1.993729
LeftLeg -6.843021 -0.000000 0.000000
LeftFoot -20.003504 26.369457 -17.967316
LeftToeBase 23.547349 -0.000000 -0.000000
RightUpLeg -4.868239 -3.713535 -0.808721
RightLeg -2.926592 -0.000000 0.000000
RightFoot -19.791514 -22.946378 18.147001
RightToeBase 22.915752 -0.000000 -0.000000
520
root 19.532046 35.787983 -22.123963 -168.015886 3.552917 -179.541038
Spine -25.398782 1.808764 2.494315
Head 14.081321 2.841201 -6.074126
LeftShoulder -14.585567 -56.068840 47.214006
LeftArm 51.580928 -49.029793 -23.056627
LeftForeArm -41.949930 0.000000 77.327236
LeftHand -3.620812 -0.000000 29.449634
LeftHandThumb1 -26.253704 0.000000 33.147579
RightShoulder -8.734683 22.951461 -43.288511
RightArm 94.477350 76.756310 69.428410
RightForeArm 18.700312 -0.000000 39.573127
RightHand -1.510722 -0.000000 -23.948190
RightHandThumb1 -24.326973 -0.000000 -32.862282
LeftUpLeg -2.726116 11.633423 -2.012242
LeftLeg -6.851111 -0.000000 0.000000
LeftFoot -19.974337 26.329121 -17.949395
LeftToeBase 23.552311 -0.000000 -0.000000
RightUpLeg -4.839552 -3.736603 -0.822695
RightLeg -2.954877 -0.000000 0.000000
RightFoot -19.791605 -22.976943 18.159266
RightToeBase 22.902739 -0.000000 -0.000000
521
root 19.526977 35.787200 -22.123283 -168.009070 3.479998 -179.544687
Spine -25.394217 1.842897 2.552544
Head 13.901793 2.780919 -5.847262
LeftShoulder -14.630785 -56.284059 47.512306
LeftArm 52.092996 -49.204224 -23.552656
LeftForeArm -42.242879 -0.000000 77.752544
LeftHand -3.271285 0.000000 29.112170
LeftHandThumb1 -26.253704 0.000000 33.147579
RightShoulder -8.711236 22.919404 -43.312109
RightArm 92.766151 76.439558 67.258572
RightForeArm 18.675473 0.000000 39.079295
RightHand -1.670199 0.000000 -23.865081
RightHandThumb1 -24.326973 -0.000000 -32.862282
LeftUpLeg -2.741742 11.637678 -2.021755
LeftLeg -6.857428 -0.000000 0.000000
LeftFoot -19.945919 26.279335 -17.904958
LeftToeBase 23.535661 -0.000000 -0.000000
RightUpLeg -4.823197 -3.769079 -0.825908
RightLeg -2.980358 -0.000000 0.000000
RightFoot -19.806183 -23.019027 18.203900
RightToeBase 22.801622 -0.000000 -0.000000
522
root 19.523121 35.786657 -22.122554 -168.005471 3.410158 -179.555582
Spine -25.389301 1.854935 2.597603
Head 13.739239 2.714817 -5.607559
LeftShoulder -14.718542 -56.551897 47.918951
LeftArm 52.480235 -49.290782 -23.943899
LeftForeArm -42.530162 -0.000000 78.250120
LeftHand -2.760092 -0.000000 28.905907
LeftHandThumb1 -26.253704 0.000000 33.147579
RightShoulder -8.657551 22.951075 -43.315367
RightArm 90.561484 76.117060 64.530653
RightForeArm 18.652934 -0.000000 38.573844
RightHand -1.744138 -0.000000 -23.884113
RightHandThumb1 -24.326973 -0.000000 -32.862282
LeftUpLeg -2.756033 11.652941 -2.036975
LeftLeg -6.863512 -0.000000 0.000000
LeftFoot -19.885897 26.227628 -17.853153
LeftToeBase 23.505974 -0.000000 -0.000000
RightUpLeg -4.806490 -3.788101 -0.833297
RightLeg -3.005083 -0.000000 0.000000
RightFoot -19.810074 -23.026782 18.216096
RightToeBase 22.790538 -0.000000 -0.000000
523
root 19.518851 35.786432 -22.121631 -168.002539 3.329214 -179.569470
Spine -25.389728 1.853860 2.659232
Head 13.635104 2.665674 -5.425742
LeftShoulder -14.817564 -56.839071 48.292291
LeftArm 52.896664 -49.347157 -24.260431
LeftForeArm -42.851344 -0.000000 78.749515
LeftHand -2.437476 -0.000000 28.741693
LeftHandThumb1 -26.253704 0.000000 33.147579
RightShoulder -8.632653 22.880303 -43.308469
RightArm 88.997307 75.752368 62.436188
RightForeArm 18.820107 -0.000000 38.255926
RightHand -1.910321 -0.000000 -23.686837
RightHandThumb1 -24.326973 -0.000000 -32.862282
LeftUpLeg -2.770623 11.630908 -2.051361
LeftLeg -6.866530 -0.000000 0.000000
LeftFoot -19.899543 26.187579 -17.858888
LeftToeBase 23.642781 -0.000000 -0.000000
RightUpLeg -4.789810 -3.808956 -0.845390
RightLeg -3.019631 -0.000000 0.000000
RightFoot -19.850321 -23.164441 18.113862
RightToeBase 23.042470 -0.000000 -0.000000
524
root 19.515083 35.785871 -22.121142 -167.992687 3.248309 -179.583637
Spine -25.405808 1.851368 2.716703
Head 13.535282 2.592387 -5.204728
LeftShoulder -14.940557 -57.046492 48.694285
LeftArm 53.419395 -49.462877 -24.697890
LeftForeArm -43.142168 -0.000000 79.298745
LeftHand -2.233759 -0.000000 28.209164
LeftHandThumb1 -26.253704 0.000000 33.147579
RightShoulder -8.605158 22.808706 -43.338892
RightArm 87.296418 75.388073 60.241240
RightForeArm 18.988365 -0.000000 38.042961
RightHand -1.899259 -0.000000 -23.054247
RightHandThumb1 -24.326973 -0.000000 -32.862282
LeftUpLeg -2.791360 11.635258 -2.069814
LeftLeg -6.873164 -0.000000 0.000000
LeftFoot -19.869987 26.135687 -17.829631
LeftToeBase 23.652408 -0.000000 -0.000000
RightUpLeg -4.771221 -3.823231 -0.857497
RightLeg -3.053461 -0.000000 0.000000
RightFoot -19.851236 -23.199896 18.111977
RightToeBase 23.081297 -0.000000 -0.000000
525
root 19.513012 35.785298 -22.119987 -167.984939 3.159422 -179.591401
Spine -25.413662 1.820490 2.776030
Head 13.448213 2.585998 -4.965026
LeftShoulder -15.077370 -57.156782 49.080975
LeftArm 54.000054 -49.578794 -25.064133
LeftForeArm -43.186286 -0.000000 79.846608
LeftHand -2.001085 -0.000000 28.164969
LeftHandThumb1 -26.253704 0.000000 33.147579
RightShoulder -8.560613 22.776994 -43.349709
RightArm 85.549635 74.994362 57.968539
RightForeArm 19.146411 -0.000000 37.861323
RightHand -2.004698 -0.000000 -22.854078
RightHandThumb1 -24.326973 -0.000000 -32.862282
LeftUpLeg -2.821416 11.644687 -2.078308
LeftLeg -6.859035 -0.000000 0.000000
LeftFoot -19.845720 26.066847 -17.781098
LeftToeBase 23.673982 -0.000000 -0.000000
RightUpLeg -4.756378 -3.849854 -0.858282
RightLeg -3.076321 -0.000000 0.000000
RightFoot -19.863100 -23.242545 18.135785
RightToeBase 23.054492 -0.000000 -0.000000
526
root 19.509453 35.785402 -22.118811 -167.985805 3.063212 -179.604076
Spine -25.421654 1.784578 2.857986
Head 13.418336 2.622453 -4.761059
LeftShoulder -15.239045 -57.419414 49.550431
LeftArm 54.390579 -49.614074 -25.334888
LeftForeArm -43.313838 -0.000000 80.488661
LeftHand -1.958236 -0.000000 27.592184
LeftHandThumb1 -26.253704 0.000000 33.147579
RightShoulder -8.520414 22.717866 -43.391446
RightArm 83.857751 74.583978 55.748401
RightForeArm 19.421879 0.000000 37.788812
RightHand -2.054931 -0.000000 -22.318169
RightHandThumb1 -24.326973 -0.000000 -32.862282
LeftUpLeg -2.870762 11.725636 -2.101815
LeftLeg -6.800306 -0.000000 0.000000
LeftFoot -19.815717 25.939178 -17.718514
LeftToeBase 23.675675 -0.000000 -0.000000
RightUpLeg -4.732020 -3.884331 -0.866562
RightLeg -3.099286 -0.000000 0.000000
RightFoot -19.891996 -23.274838 18.177056
RightToeBase 23.085722 -0.000000 -0.000000
527
root 19.506617 35.785533 -22.117760 -167.980528 2.971715 -179.617435
Spine -25.434899 1.738436 2.931837
Head 13.344429 2.614029 -4.501752
LeftShoulder -15.392020 -57.671580 50.020890
LeftArm 54.738287 -49.629459 -25.485844
LeftForeArm -43.429385 -0.000000 81.148240
LeftHand -1.709301 -0.000000 27.019413
LeftHandThumb1 -26.253704 0.000000 33.147579
RightShoulder -8.493270 22.612134 -43.424328
RightArm 82.836495 74.166267 54.225561
RightForeArm 19.736013 -0.000000 37.790975
RightHand -1.631925 -0.000000 -21.186412
RightHandThumb1 -24.326973 -0.000000 -32.862282
LeftUpLeg -2.893065 11.714254 -2.113769
LeftLeg -6.798959 -0.000000 0.000000
LeftFoot -19.780738 25.880369 -17.694310
LeftToeBase 23.688849 -0.000000 -0.000000
RightUpLeg -4.717845 -3.901205 -0.874173
RightLeg -3.115006 -0.000000 0.000000
RightFoot -19.907320 -23.326259 18.215127
RightToeBase 23.011541 -0.000000 -0.000000
528
root 19.503866 35.785568 -22.117332 -167.980329 2.868518 -179.631715
Spine -25.456218 1.687528 3.014744
Head 13.331800 2.605950 -4.259157
LeftShoulder -15.506684 -57.951666 50.443633
LeftArm 55.028569 -49.574316 -25.553170
LeftForeArm -43.613691 0.000000 81.774736
LeftHand -1.245466 0.000000 26.105071
LeftHandThumb1 -26.253704 0.000000 33.147579
RightShoulder -8.452636 22.519365 -43.485866
RightArm 81.865749 73.716585 52.763851
RightForeArm 19.796471 0.000000 37.932197
RightHand -1.810212 -0.000000 -20.622450
RightHandThumb1 -24.326973 -0.000000 -32.862282
LeftUpLeg -2.910090 11.676784 -2.120901
LeftLeg -6.791886 -0.000000 0.000000
LeftFoot -19.749118 25.840866 -17.662114
LeftToeBase 23.690412 -0.000000 -0.000000
RightUpLeg -4.694839 -3.947209 -0.880910
RightLeg -3.131691 -0.000000 0.000000
RightFoot -19.915653 -23.376020 18.216957
RightToeBase 23.029472 -0.000000 -0.000000
529
root 19.502158 35.785636 -22.113677 -167.970222 2.772792 -179.643708
Spine -25.479412 1.642905 3.098925
Head 13.364490 2.694874 -4.054038
LeftShoulder -15.634669 -58.174667 50.877776
LeftArm 55.368424 -49.562901 -25.641077
LeftForeArm -43.840110 -0.000000 82.484064
LeftHand -0.953474 0.000000 25.827897
LeftHandThumb1 -26.253704 0.000000 33.147579
RightShoulder -8.398181 22.407561 -43.551123
RightArm 80.578940 73.305507 50.951826
RightForeArm 20.041677 -0.000000 38.116428
RightHand -1.676638 -0.000000 -19.866003
RightHandThumb1 -24.326973 -0.000000 -32.862282
LeftUpLeg -2.950040 11.632955 -2.128777
LeftLeg -6.770280 -0.000000 0.000000
LeftFoot -19.738326 25.813441 -17.633784
LeftToeBase 23.722424 -0.000000 -0.000000
RightUpLeg -4.689732 -3.975757 -0.883495
RightLeg -3.145224 -0.000000 0.000000
RightFoot -19.929745 -23.425671 18.240296
RightToeBase 23.007371 -0.000000 -0.000000
530
root 19.501131 35.786028 -22.113843 -167.984670 2.691257 -179.656170
Spine -25.480939 1.609313 3.171926
Head 13.382064 2.796151 -3.731115
LeftShoulder -15.815608 -58.441341 51.395977
LeftArm 55.645687 -49.497811 -25.711646
LeftForeArm -44.160511 -0.000000 83.203379
LeftHand -0.598368 -0.000000 25.003517
LeftHandThumb1 -26.253704 0.000000 33.147579
RightShoulder -8.356831 22.289743 -43.599842
RightArm 79.748530 72.889789 49.600492
RightForeArm 20.322609 -0.000000 38.435600
RightHand -1.607261 0.000000 -18.900499
RightHandThumb1 -24.326973 -0.000000 -32.862282
LeftUpLeg -2.947153 11.608387 -2.129851
LeftLeg -6.766292 -0.000000 0.000000
LeftFoot -19.726937 25.768489 -17.643141
LeftToeBase 23.733130 -0.000000 -0.000000
RightUpLeg -4.656950 -3.993040 -0.889818
RightLeg -3.157897 -0.000000 0.000000
RightFoot -19.949643 -23.482594 18.253432
RightToeBase 22.998530 -0.000000 -0.000000
